<svg xmlns="http://www.w3.org/2000/svg" viewBox="268.73 302.48 541.29 482.82">
  <defs>
    <style>
      .cls-1, .cls-26, .cls-27 {
        fill: #fefdfd;
      }

      .cls-1, .cls-10, .cls-14, .cls-16, .cls-2, .cls-22, .cls-24, .cls-4 {
        stroke: #fff;
        stroke-width: 1px;
      }

      .cls-1, .cls-10, .cls-11, .cls-12, .cls-13, .cls-14, .cls-16, .cls-17, .cls-18, .cls-2, .cls-21, .cls-22, .cls-23, .cls-24, .cls-25, .cls-4, .cls-7, .cls-9 {
        fill-rule: evenodd;
      }

      .cls-2, .cls-3 {
        fill: #43172e;
      }

      .cls-4, .cls-5 {
        fill: #7a0000;
      }

      .cls-6, .cls-7 {
        fill: #cd0b0b;
      }

      .cls-8, .cls-9 {
        fill: #c1121f;
      }

      .cls-9 {
        stroke: #c1121f;
        stroke-width: 6px;
      }

      .cls-10, .cls-11 {
        fill: #9b0000;
      }

      .cls-12, .cls-13 {
        fill: #e07874;
      }

      .cls-13 {
        stroke: #e07874;
        stroke-width: 3px;
      }

      .cls-14, .cls-15 {
        fill: #031846;
      }

      .cls-16, .cls-17 {
        fill: #082065;
      }

      .cls-18, .cls-19 {
        fill: #114d94;
      }

      .cls-20, .cls-21 {
        fill: #1f3f74;
      }

      .cls-21 {
        stroke: #1f3f74;
        stroke-width: 7.41px;
      }

      .cls-22, .cls-23 {
        fill: #2a6f98;
      }

      .cls-24, .cls-25 {
        fill: #4569ad;
      }

      .cls-25 {
        stroke: #4569ad;
        stroke-width: 3.87px;
      }

      .cls-26 {
        font-size: 66.667px;
        font-family: Bahnschrift;
      }

      .cls-26, .cls-27 {
        text-anchor: middle;
      }

      .cls-27 {
        font-size: 41.667px;
        font-family: Arial;
      }
    </style>
  </defs>
  <path class="cls-1" d="M508.165,502.5s3.356,16.773,22.44,12.616c0.1,0.143,19.9-7.168,6.9-17.777-0.047-.716-29.345-20.07-29.345-20.07l6.905-4.014s25.8,16.343,31.071,23.511a11.468,11.468,0,0,1,1.419,3.982,11.776,11.776,0,0,1-2.514,10.162,16.9,16.9,0,0,1-5.809,4.206c-0.45-.079-12.325,7.075-24.743.573-0.219-.079-5.754-3.44-5.754-3.44Z"/>
  <path class="cls-1" d="M505.288,474.406l6.9-4.588s-12.942-10.915-12.4-27.42c0.226-6.846,2.771-14.654,9.522-23.043-0.219-.057,20.128-19.841,48.909-4.014,0.241,0.115,18.862,10.15,13.809,34.98-0.1.057-2.888,22.078-31.071,24.658,0.011-.057,0,1.147,0,1.147s29.449-2.122,33.373-28.672c0.241,0.057,4.362-23.855-20.139-36.7a45.863,45.863,0,0,0-21.865-4.588,45.215,45.215,0,0,0-18.77,5.348,56.119,56.119,0,0,0-8.621,5.579c-0.463.362,0.8-.413,0.347-0.031a40.827,40.827,0,0,0-8.056,9.175C491.322,435.661,486.505,454.258,505.288,474.406Z"/>
  <path class="cls-1" d="M559.168,441.944s-3.088-16.824-22.237-12.969c-0.094-.145-20.01,6.852-7.187,17.665,0.036,0.717,29.022,20.532,29.022,20.532l-6.968,3.9s-25.533-16.749-30.693-24a11.516,11.516,0,0,1-1.355-4,11.778,11.778,0,0,1,2.676-10.121,16.888,16.888,0,0,1,5.875-4.113c0.448,0.086,12.436-6.879,24.748-.182,0.218,0.083,5.7,3.531,5.7,3.531Z"/>
  <path class="cls-1" d="M561.6,470.084l-6.977,4.478s12.766,11.119,11.96,27.613c-0.334,6.841-3,14.608-9.887,22.889,0.218,0.061-20.442,19.52-48.967,3.24-0.239-.119-18.7-10.447-13.25-35.194,0.105-.056,3.239-22.029,31.46-24.163-0.012.057,0.018-1.147,0.018-1.147s-29.479,1.655-33.825,28.14c-0.24-.061-4.742,23.784,19.552,37.015a45.854,45.854,0,0,0,21.789,4.932,45.2,45.2,0,0,0,18.852-5.05,56.177,56.177,0,0,0,8.709-5.441c0.468-.356-0.81.4-0.347,0.025a40.835,40.835,0,0,0,8.2-9.046C574.944,509.045,580.057,490.526,561.6,470.084Z"/>
  <path class="cls-2" d="M473.641,391.137c17.638-6.5,36.171-11.978,52.937-14.908,7.822-1.366,16.779-2.562,25.642-3.474,1.1-.113,2.3-0.234,3.28-0.324,14.743-1.363,78.511-4.729,111.248,32.343a80.361,80.361,0,0,1,8.858,12.164c7.052,11.634,11.325,24.625,11.236,38-0.117,17.6-6.651,39.518-29.073,61.766,0.647-.86-4.028-4.587-4.028-4.587S702,467.681,671,419.805c0.179-.287-11.544-20.354-42.121-33.9-11.159-4.943-37.746-12.565-67.372-12.091a221.2,221.2,0,0,0-28.027,2.415A314.1,314.1,0,0,0,473.641,391.137Z"/>
  <circle class="cls-3" cx="652.875" cy="517" r="6.625"/>
  <path class="cls-4" d="M473.066,387.365S683.514,326.576,706.1,446.876c-0.184,1.229,14.679,65.269-88.611,133.326-1.188.853,2.3,6.867,2.3,6.867-0.653.7-1.322,1.49-1.151,1.717,0.669,0.881,13.576-7.495,23.016-14.306A238,238,0,0,0,668.7,552.164c20.957-20.572,33.556-41.694,39.127-56.65,5.986-16.071,7.538-29.863,6.9-40.055a87.225,87.225,0,0,0-5.179-24.605h0.006C710.14,430.68,678.142,324,473.066,387.365Z"/>
  <circle class="cls-5" cx="619.922" cy="583.89" r="8.516"/>
  <circle class="cls-6" cx="723.5" cy="529.546" r="8.5"/>
  <path class="cls-7" d="M475.367,388.363s176-62.54,241.667,26.272a0.048,0.048,0,0,0-.041.007c-0.268.251,3.151,4.97,5.4,8.449a85.594,85.594,0,0,1,10.178,22.957c2.49,8.766,3.9,21.972,1.726,37.695a108.042,108.042,0,0,1-12.658,37.695,0.2,0.2,0,0,0-.079.112c-0.246.989,8.71,3.886,8.71,3.886s49.412-71.678-22.441-135.931C707.612,389.505,635.04,323.253,475.367,388.363Z"/>
  <circle class="cls-8" cx="567.625" cy="635.547" r="9"/>
  <path class="cls-9" d="M573.185,630.251a331.859,331.859,0,0,0,131.191-84.425c-0.863-.287,5.754-0.574,3.452,5.169-0.248.3-.5,0.606-0.747,0.91-8.008,9.68-17.915,19.111-30.324,28.955a314.316,314.316,0,0,1-33.949,23.547,309.736,309.736,0,0,1-34.524,17.8l-32.8,14.358"/>
  <path class="cls-10" d="M508.975,598.707a309.069,309.069,0,0,0,127.659-69.284c-0.782-.327,5.381-0.135,2.846,5.036-0.252.266-.5,0.529-0.757,0.793-8.107,8.431-17.96,16.5-30.164,24.778a292.54,292.54,0,0,1-33.153,19.507,288.313,288.313,0,0,1-33.287,14.136L510.673,604.73"/>
  <path class="cls-11" d="M509.649,593.246a7.891,7.891,0,1,1-8.483,7.281A7.9,7.9,0,0,1,509.649,593.246Z"/>
  <path class="cls-12" d="M495.264,624.144a7.906,7.906,0,1,1-8.483,7.294A7.908,7.908,0,0,1,495.264,624.144Z"/>
  <path class="cls-13" d="M494.931,627.966q19.361-5.658,39.076-11.877A381.534,381.534,0,0,0,570.883,602.7c4.694-2.019,9.223-4.091,13.81-6.315,2.818-1.189,5.623.209,6.205,2.155a4.143,4.143,0,0,1-1.6,4.16c-5.9,2.85-11.762,5.489-17.837,8.039a476.836,476.836,0,0,1-48.334,16.65c-8.433,2.472-16.731,4.729-25.317,6.89"/>
  <path class="cls-14" d="M599.137,553.621c-17.572,6.643-36.049,12.274-52.785,15.355-7.808,1.436-16.752,2.714-25.606,3.709-1.1.123-2.3,0.255-3.277,0.355-14.729,1.5-78.459,5.479-111.565-31.085a80.046,80.046,0,0,1-8.979-12.016c-7.167-11.5-11.57-24.389-11.614-37.7-0.059-17.513,6.257-39.385,28.456-61.742-0.638.862,4.074,4.524,4.074,4.524s-47.816,44.688-16.341,92.017c-0.177.287,11.746,20.139,42.457,33.315,11.207,4.809,37.869,12.13,67.488,11.367a222.26,222.26,0,0,0,28-2.68A315.265,315.265,0,0,0,599.137,553.621Z"/>
  <circle class="cls-15" cx="418.656" cy="430.297" r="6.625"/>
  <path class="cls-16" d="M599.747,552.723s-209.831,61.464-233.619-55.929c0.171-1.2-15.33-63.669,87.275-131.2,1.179-.845-2.37-6.691-2.37-6.691,0.646-.687,1.307-1.47,1.133-1.69-0.677-.854-13.5,7.459-22.871,14.208a236.734,236.734,0,0,0-26.82,22.079c-20.75,20.315-33.138,41.087-38.559,55.762-5.825,15.769-7.239,29.268-6.5,39.227a83.629,83.629,0,0,0,5.424,24H362.83C362.251,512.666,395.314,616.656,599.747,552.723Z"/>
  <path class="cls-17" d="M451.027,370.758a8.252,8.252,0,1,1,8.418-8.33A8.385,8.385,0,0,1,451.027,370.758Z"/>
  <path class="cls-18" d="M597.434,550.72s-175.365,64.3-241.918-23.9a0.047,0.047,0,0,0,.041-0.007c0.266-.254-3.2-4.941-5.483-8.4a85.654,85.654,0,0,1-10.407-22.865c-2.578-8.744-4.12-21.941-2.1-37.691a108.112,108.112,0,0,1,12.281-37.833,0.209,0.209,0,0,0,.078-0.114c0.236-.991-8.748-3.8-8.748-3.8s-48.693,72.191,23.8,135.758C365.189,551.868,438.421,617.428,597.434,550.72Z"/>
  <circle class="cls-19" cx="346.781" cy="414.984" r="8.5"/>
  <circle class="cls-20" cx="498.14" cy="312.25" r="9.766"/>
  <path class="cls-21" d="M497.22,316.906a334.25,334.25,0,0,0-72.142,35.66,329.888,329.888,0,0,0-58.2,48.492c0.866,0.274-5.747.62-3.5-5.04,0.245-.3.49-0.6,0.738-0.9,7.911-9.581,17.724-18.936,30.034-28.719A308.867,308.867,0,0,1,462.2,325.141l32.653-14.414"/>
  <path class="cls-22" d="M561.742,346.747a323.2,323.2,0,0,0-69.5,26.61A308.842,308.842,0,0,0,434.78,412.1c0.784,0.3-5.38.174-2.9-4.64,0.249-.248.5-0.494,0.749-0.741,8.022-7.885,17.8-15.449,29.916-23.23a295.553,295.553,0,0,1,66.1-31.775l31.334-10.532"/>
  <path class="cls-23" d="M561.12,350.607a7.708,7.708,0,1,1,8.4-7.184A7.8,7.8,0,0,1,561.12,350.607Z"/>
  <path class="cls-24" d="M575.567,321.971c-4.739-.284-8.333-4.075-8.026-8.467s4.4-7.722,9.137-7.438,8.334,4.076,8.027,8.468S580.307,322.256,575.567,321.971Z"/>
  <path class="cls-25" d="M575.494,318.486q-19.3,5.79-38.956,12.139a383.964,383.964,0,0,0-36.742,13.61c-4.673,2.045-9.181,4.139-13.746,6.386-2.805,1.2-5.625-.152-6.226-2.072a4.082,4.082,0,0,1,1.56-4.134c5.876-2.878,11.707-5.547,17.757-8.13a479.862,479.862,0,0,1,48.165-16.954c8.408-2.529,16.684-4.845,25.248-7.068"/>
  <text id="SUDARSHANSOFT" class="cls-26" x="538.625" y="726.5"><tspan x="538.625">SUDARSHANSOFT</tspan></text>
  <text id="SOLUTIONS" class="cls-27" x="537.625" y="776.499"><tspan x="537.625">SOLUTIONS</tspan></text>
</svg>